<?xml version="1.0" standalone="no"?>
<!DOCTYPE svg PUBLIC "-//W3C//DTD SVG 20010904//EN"
 "http://www.w3.org/TR/2001/REC-SVG-20010904/DTD/svg10.dtd">
<svg version="1.0" xmlns="http://www.w3.org/2000/svg"
 width="680.000000pt" height="400.000000pt" viewBox="0 0 680.000000 400.000000"
 preserveAspectRatio="xMidYMid meet">
<metadata>
Created by potrace 1.15, written by Peter Selinger 2001-2017
</metadata>
<g transform="translate(0.000000,400.000000) scale(0.100000,-0.100000)"
fill="#000000" stroke="none">
<path d="M0 2000 l0 -2000 253 0 252 0 38 108 c33 90 103 263 137 337 5 11 14
33 20 48 8 24 13 26 30 17 11 -6 20 -18 21 -28 0 -9 2 -35 4 -56 2 -22 0 -60
-6 -85 -6 -25 -13 -112 -15 -193 l-3 -148 569 0 c500 0 570 2 570 15 0 8 7 15
16 15 13 0 15 9 10 58 -16 146 -3 187 67 221 24 12 48 21 54 21 6 0 16 7 23
15 27 33 -83 -18 -121 -56 -35 -35 -37 -36 -28 -11 6 15 17 34 25 44 14 15 12
16 -25 11 -24 -3 -65 1 -99 10 -79 22 -253 37 -413 36 -74 -1 -146 2 -159 6
-14 4 -48 25 -77 46 -29 22 -57 39 -63 39 -6 0 -23 11 -38 25 -31 29 -40 30
-106 10 -67 -20 -84 -13 -98 43 -6 26 -13 41 -16 34 -2 -6 -3 -14 -2 -17 1 -8
-45 -45 -57 -45 -4 0 -21 27 -37 60 -16 32 -34 57 -39 53 -18 -11 -2 150 18
183 18 31 17 31 -22 134 -22 57 -38 111 -36 120 3 12 50 28 171 59 92 24 181
50 197 57 32 14 60 14 74 -2 5 -5 18 -36 29 -69 11 -33 52 -152 92 -265 47
-136 70 -215 67 -235 -3 -19 3 -40 15 -58 l20 -28 242 7 c199 5 263 4 366 -10
172 -24 184 -31 242 -141 26 -49 51 -91 57 -93 24 -8 156 -233 144 -245 -3 -4
-1 -7 5 -7 6 0 14 -9 17 -20 6 -20 15 -20 508 -20 l502 0 41 118 c47 132 31
122 162 109 42 -4 62 -2 62 5 0 6 3 9 6 6 3 -4 20 -2 37 3 32 9 107 -5 107
-20 0 -4 12 -14 28 -22 33 -17 92 -76 111 -111 12 -23 11 -28 -9 -51 -22 -25
-40 -28 -40 -6 0 6 4 8 9 5 14 -9 34 22 26 41 -6 16 -8 16 -25 -5 -21 -26 -32
-10 -18 27 5 15 5 28 -2 35 -10 10 -15 -22 -11 -77 1 -17 -4 -29 -13 -33 -30
-11 -16 -24 25 -24 30 0 46 6 59 22 17 22 18 22 17 3 -2 -20 5 -20 446 -23
441 -2 448 -2 490 19 138 71 267 184 267 236 0 39 23 107 60 181 29 56 34 62
63 62 30 0 33 4 55 63 34 91 43 107 64 107 15 0 21 -8 20 -30 0 -3 -12 -43
-26 -89 -30 -100 -20 -96 17 6 25 69 26 82 33 376 l7 306 -408 0 c-225 1 -411
3 -413 6 -3 3 180 5 406 5 l411 0 3 23 3 22 264 -3 c259 -2 292 -6 275 -34 -3
-4 133 -9 303 -10 l308 -3 -301 -2 -301 -3 -7 -62 c-3 -33 -6 -159 -6 -278 0
-286 -7 -371 -32 -378 -10 -2 -18 -10 -18 -17 0 -33 86 -186 191 -338 l114
-166 273 -1 272 0 0 2000 0 2000 -64 0 -63 0 -6 -52 c-8 -65 -18 -75 -51 -52
-28 21 -35 39 -10 30 12 -4 14 -1 9 14 -4 14 -2 20 9 20 8 0 18 4 21 10 4 6
-6 7 -24 4 -17 -4 -38 -3 -48 1 -17 7 -17 8 2 15 11 5 -75 9 -202 9 -122 0
-225 -4 -228 -9 -3 -5 -20 -6 -38 -3 -17 4 -135 8 -260 10 l-228 4 -29 -31
c-33 -35 -75 -41 -83 -10 -3 12 -14 20 -27 20 -11 0 -18 5 -15 10 4 7 -105 10
-319 10 -179 0 -326 -3 -326 -7 0 -3 7 -14 15 -23 14 -16 12 -19 -32 -37 -81
-34 -186 -59 -191 -45 -2 7 -8 12 -13 12 -6 0 -7 -4 -4 -10 3 -5 1 -10 -4 -10
-11 0 -12 3 -15 38 -2 30 -16 44 -31 32 -19 -16 -35 -4 -35 26 0 23 -2 24 -79
24 l-79 0 -7 -32 c-7 -34 -31 -68 -47 -68 -5 0 -16 7 -25 16 -10 10 -25 13
-44 9 -21 -5 -29 -3 -29 7 0 9 -3 10 -8 2 -4 -7 -19 1 -42 23 l-35 35 32 -16
c18 -9 49 -16 70 -16 21 0 50 -6 64 -14 32 -16 44 -10 45 25 l2 26 -802 2
-803 2 -37 -22 c-21 -12 -56 -24 -79 -27 -23 -2 -46 -10 -50 -18 -4 -8 -17
-14 -28 -14 -19 0 -18 2 8 30 15 17 36 30 45 30 9 0 20 4 23 10 4 6 -370 10
-1077 10 l-1083 0 35 -24 c57 -38 183 -89 218 -88 18 1 41 6 52 12 11 6 30 9
42 6 13 -2 40 -7 61 -11 21 -4 43 -15 50 -25 7 -10 29 -26 50 -36 21 -10 44
-30 51 -45 15 -30 12 -39 -15 -39 -19 0 -33 -26 -18 -35 5 -4 2 -13 -7 -22
-13 -13 -22 -14 -50 -5 -30 9 -34 8 -34 -9 0 -10 6 -19 14 -19 8 0 16 -7 20
-15 8 -21 -14 -18 -44 5 -14 11 -31 20 -38 20 -7 0 -10 5 -7 10 3 6 -1 10 -9
10 -9 0 -16 4 -16 10 0 5 13 7 30 4 38 -8 38 -1 0 26 -27 19 -35 20 -60 10
-23 -10 -32 -9 -52 4 -14 9 -27 13 -30 10 -4 -3 -16 4 -28 16 -16 16 -25 19
-30 11 -5 -9 -10 -8 -20 4 -7 8 -17 15 -23 15 -7 0 -7 -4 1 -12 14 -14 16 -28
4 -28 -5 0 -15 11 -22 25 -7 14 -22 25 -32 25 -10 0 -18 6 -18 13 0 14 -72 77
-88 77 -14 0 -166 82 -170 92 -2 4 -62 8 -133 8 l-129 0 0 -2000z m2025 1953
c4 -17 2 -29 -4 -31 -6 -2 -11 -10 -11 -17 0 -8 -11 -31 -25 -51 -14 -20 -25
-45 -25 -55 0 -10 -9 -24 -20 -31 -11 -7 -34 -32 -52 -55 -35 -47 -45 -52 -55
-25 -3 9 -15 27 -26 39 -11 12 -16 27 -12 34 5 8 4 10 -3 5 -7 -4 -12 -29 -12
-57 0 -37 4 -49 15 -49 20 0 19 -30 -1 -59 -12 -17 -15 -33 -9 -64 4 -23 6
-55 5 -72 -1 -16 -3 -174 -4 -350 0 -176 -5 -326 -9 -333 -12 -18 -687 -17
-710 1 -13 10 -15 67 -19 392 -2 209 -1 398 3 420 4 29 7 33 9 15 1 -14 1 -37
0 -52 -1 -15 1 -32 5 -37 8 -15 101 24 128 53 12 12 28 21 35 19 6 -3 12 0 12
6 0 6 9 11 19 11 28 0 35 17 12 25 -13 4 -18 12 -14 22 3 8 0 19 -7 23 -21 13
55 20 170 16 l105 -3 3 -391 2 -392 -225 0 -225 0 0 -25 0 -25 341 0 341 0 -6
198 c-3 108 -5 299 -5 425 l-1 227 -271 0 -271 0 -44 28 c-24 15 -45 32 -48
38 -5 13 402 29 576 22 l96 -3 25 41 c22 37 32 43 77 53 43 9 86 33 79 43 -5
7 27 48 37 48 7 0 15 -12 19 -27z m735 -19 c11 -11 12 -14 1 -14 -8 0 -2 -9
11 -20 14 -10 38 -44 53 -74 53 -105 192 -233 271 -250 28 -6 62 -26 168 -99
51 -35 64 -34 68 6 l3 32 124 2 c73 1 128 6 134 12 6 6 18 11 27 11 9 0 35 16
57 35 47 40 63 38 93 -10 31 -50 26 -69 -29 -109 -42 -31 -53 -47 -74 -104
-39 -105 -47 -133 -47 -164 0 -25 -3 -28 -20 -23 -18 6 -20 2 -20 -32 0 -22
-5 -44 -12 -51 -16 -16 -224 -17 -234 0 -4 6 -7 53 -7 104 1 91 1 92 -29 114
-16 12 -30 20 -31 18 -22 -42 -24 -43 -87 -39 -44 2 -61 0 -56 -8 5 -7 -2 -11
-17 -11 -27 0 -62 34 -106 105 -17 27 -51 70 -75 95 -257 263 -327 343 -326
374 1 19 24 42 65 65 22 12 31 19 20 16 -11 -4 -28 -8 -38 -10 -10 -2 -37 -19
-60 -37 -23 -17 -35 -23 -26 -13 9 11 14 26 12 32 -3 7 2 16 11 19 9 3 14 10
11 14 -8 13 77 37 115 32 19 -3 42 -11 50 -18z m1344 -49 c38 -33 57 -33 22 0
-33 30 -31 31 30 5 37 -16 49 -18 56 -8 7 12 12 3 9 -16 -1 -5 4 -13 11 -18 8
-6 5 -7 -11 -3 -14 5 -21 3 -17 -3 15 -24 -277 -274 -303 -258 -4 3 -25 30
-45 59 l-37 54 93 95 c128 130 142 136 192 93z m2394 -10 c12 -19 22 -42 22
-51 0 -15 -32 -67 -55 -89 -39 -38 -40 -37 -85 30 -23 36 -50 70 -59 74 -9 5
-12 13 -8 18 5 4 24 -11 43 -35 33 -39 54 -53 54 -34 0 4 -11 19 -25 34 -14
15 -25 35 -25 45 1 15 5 13 23 -9 20 -25 45 -40 34 -20 -3 4 0 12 7 18 9 8 18
1 36 -28 31 -50 37 -35 10 26 -24 56 -24 56 -7 56 6 0 22 -16 35 -35z m-908
-384 l45 -6 -3 -202 c-2 -111 -5 -210 -7 -220 -2 -10 -4 -57 -4 -104 -1 -52
-6 -92 -13 -102 -12 -14 -32 -15 -208 -6 -107 6 -200 15 -207 21 -14 11 -17
66 -7 117 9 42 24 29 24 -20 l0 -39 43 0 c24 0 85 -3 135 -6 88 -7 92 -6 92
14 0 15 5 19 19 15 13 -3 21 1 24 14 4 17 5 17 6 0 0 -10 -6 -20 -14 -23 -22
-9 -18 -24 5 -24 11 0 20 6 21 13 0 10 2 10 6 0 2 -7 13 -13 24 -13 17 0 19 8
19 60 0 50 -3 60 -17 61 -12 1 -10 4 7 9 14 4 19 8 13 9 -7 1 -13 8 -13 17 0
13 -7 15 -37 10 -27 -4 -32 -3 -18 4 11 5 15 9 9 9 -9 1 -9 11 0 40 6 22 15
43 19 47 4 4 7 16 7 27 0 10 6 33 14 50 16 36 36 117 36 145 0 15 -8 19 -35
20 -19 1 -35 -3 -35 -8 0 -6 10 -11 23 -11 18 -1 18 -2 4 -6 -10 -3 -27 3 -38
13 -19 17 -22 16 -93 -55 -45 -45 -76 -69 -80 -62 -4 6 0 18 8 27 22 22 20 27
-10 21 -18 -3 -33 3 -51 19 -14 13 -20 24 -14 24 7 0 10 4 6 9 -3 5 -1 12 5
16 22 13 8 25 -30 25 -22 0 -40 -4 -40 -10 0 -5 -4 -10 -10 -10 -11 0 -14 73
-3 84 7 7 300 -3 373 -13z m-1137 -241 c7 0 6 4 -3 10 -13 8 -12 10 3 10 10 0
25 -7 33 -15 17 -16 11 -19 -33 -15 -12 1 -30 -3 -40 -9 -15 -8 -9 -11 27 -12
36 -2 39 -3 15 -7 l-30 -5 25 -8 c20 -7 18 -8 -10 -4 -19 3 -42 0 -50 -6 -13
-9 -12 -10 3 -5 21 7 23 -10 1 -18 -9 -3 -34 -6 -57 -5 -23 0 -36 3 -29 6 14
5 17 33 3 33 -6 0 -13 -5 -16 -10 -4 -6 -11 -7 -18 -3 -7 4 -4 9 9 14 14 6 15
8 3 8 -9 1 -26 -8 -39 -19 -13 -12 -30 -18 -38 -15 -7 3 -23 5 -33 5 -11 0
-18 4 -15 9 4 5 -3 7 -13 4 -23 -6 -62 13 -58 29 1 6 -4 13 -11 15 -9 4 -10
-1 -3 -20 9 -24 9 -24 -52 -24 l-62 0 55 7 c30 4 48 8 40 9 -16 2 -60 35 -60
45 0 3 55 5 123 4 87 -1 109 -3 77 -8 l-45 -7 48 -1 c28 -1 47 2 47 9 0 10 55
8 125 -3 12 -2 19 2 18 9 -2 9 4 10 23 3 14 -6 31 -10 37 -10z m1597 -190
c-37 -5 -45 -8 -25 -9 30 -3 30 -3 5 -10 -14 -5 -54 -7 -88 -6 -36 2 -74 -3
-88 -10 -20 -10 -6 -12 93 -10 65 1 99 1 76 -2 -24 -2 -43 -8 -43 -12 0 -5
-13 -8 -30 -7 -16 1 -30 5 -30 11 0 5 -5 4 -11 -2 -6 -6 -40 -9 -82 -7 -52 2
-63 1 -42 -5 l30 -9 -27 -1 c-15 0 -30 4 -33 9 -3 6 -20 10 -36 10 -18 0 -28
4 -24 10 3 6 34 10 68 10 83 0 62 18 -25 22 -65 2 -79 13 -28 20 14 2 108 4
210 4 109 1 163 -2 130 -6z m-1984 -150 c8 0 14 5 14 10 0 21 20 9 21 -12 1
-18 2 -19 6 -5 3 13 13 18 31 16 15 -1 35 2 46 6 10 5 21 4 25 -3 3 -5 15 -12
26 -15 11 -2 1 -3 -22 -1 -24 2 -43 -1 -43 -6 0 -6 27 -10 59 -10 65 0 94 -7
85 -21 -3 -5 -42 -9 -87 -9 -58 -1 -88 -5 -102 -16 -19 -15 -19 -15 9 -8 25 6
28 4 23 -10 -5 -13 1 -16 41 -16 l47 1 -30 14 c-28 13 -21 14 85 14 143 -1
139 -1 116 16 -19 14 -17 15 17 15 21 0 46 6 57 12 15 10 27 10 50 1 16 -6 40
-8 52 -5 l23 6 -25 7 c-24 7 -24 7 6 8 21 1 31 -4 31 -14 0 -20 -30 -28 -77
-20 -36 6 -40 5 -40 -14 0 -18 6 -21 45 -21 43 0 58 -11 33 -26 -7 -5 -8 -3
-4 5 6 9 -1 11 -31 5 -21 -4 -47 -10 -58 -14 -11 -3 -60 -5 -110 -4 -49 2
-105 -1 -123 -6 -19 -5 -30 -5 -27 1 7 10 -19 12 -54 2 -23 -6 -23 -7 -5 -14
17 -7 17 -8 1 -8 -10 -1 -20 6 -23 14 -9 23 -21 18 -32 -14 -6 -16 -21 -35
-33 -41 -19 -11 -25 -10 -36 6 -8 11 -18 19 -23 19 -5 0 -15 6 -22 13 -10 10
-10 15 2 23 13 9 13 10 0 8 -8 -1 -24 0 -35 1 -14 1 -10 5 13 11 18 5 30 14
27 19 -7 12 -86 14 -84 3 1 -5 0 -11 -1 -15 -1 -5 -3 -14 -4 -20 -2 -22 -41
-15 -41 7 0 17 -6 19 -35 17 -51 -6 -57 -13 -22 -31 17 -9 32 -20 34 -26 2 -5
6 -9 10 -8 3 1 12 -4 18 -12 10 -12 9 -15 -6 -15 -22 1 -76 29 -56 30 23 0 2
20 -21 20 -18 0 -19 -2 -7 -11 12 -8 9 -10 -12 -6 -15 2 -29 0 -30 -5 -2 -5
-17 -2 -34 6 -16 9 -63 20 -104 26 -41 6 -76 13 -79 15 -9 9 65 4 144 -10 102
-19 109 -18 60 6 -30 15 -33 19 -13 15 15 -4 30 -2 33 4 3 5 17 10 30 10 13 0
27 5 30 10 8 13 -36 13 -69 0 -16 -6 -48 -6 -83 -1 -32 5 -46 9 -30 10 17 1
27 7 27 16 0 8 -5 15 -11 15 -5 0 -7 -4 -4 -10 3 -5 -3 -10 -15 -10 -12 0 -18
5 -15 10 3 6 0 11 -7 12 -7 1 57 4 142 8 85 3 176 3 201 0 26 -3 55 -3 65 1
38 14 -14 22 -109 17 -51 -2 -108 -2 -127 2 -19 3 28 7 104 8 77 1 142 5 145
8 3 3 7 0 9 -5 2 -6 10 -11 18 -11z m-1859 -274 c4 -3 -27 -7 -68 -7 -41 -1
-66 -3 -56 -6 9 -2 15 -9 12 -14 -4 -5 25 -10 67 -10 62 -2 55 -3 -47 -10 -66
-5 -128 -13 -137 -19 -13 -7 -27 -6 -50 4 -18 8 -26 15 -18 17 8 1 -3 5 -25 9
l-40 7 40 3 c39 2 39 3 10 10 l-30 8 28 1 c15 0 27 5 27 11 0 10 277 6 287 -4z
m4118 4 c-130 -5 -157 -8 -116 -14 20 -2 23 -16 5 -17 -26 -2 -58 -5 -130 -14
-49 -6 -63 -4 -76 9 -18 17 -43 22 -33 6 6 -10 -62 -5 -115 7 -14 4 -31 5 -37
4 -7 -1 -13 3 -13 8 0 5 -10 12 -22 14 -13 2 137 4 332 4 243 -1 308 -3 205
-7z m-5065 -220 c-15 -13 -31 -17 -51 -13 -29 5 -42 -10 -16 -21 6 -2 -1 -5
-18 -5 -16 0 -47 -2 -67 -5 -21 -4 -56 -2 -79 3 -30 7 -49 6 -72 -4 -22 -10
-26 -14 -13 -15 11 0 17 -2 14 -5 -3 -3 -36 -1 -74 5 -38 6 -98 13 -134 16
-36 3 -87 12 -113 21 -26 8 -54 12 -62 9 -19 -7 -47 3 -40 14 3 5 28 8 55 8
29 -1 47 -5 43 -11 -4 -6 7 -7 29 -3 19 3 37 3 41 0 8 -8 113 -18 172 -17 22
1 67 1 100 0 130 -2 175 3 194 22 12 12 34 19 66 19 l47 1 -22 -19z m2657 2
c37 1 58 -4 71 -15 10 -9 29 -18 43 -18 21 -1 20 -2 -6 -8 -16 -4 -34 -4 -40
1 -14 12 -25 10 -25 -6 0 -8 8 -17 18 -19 9 -3 -7 -5 -35 -6 -56 -1 -63 -6
-37 -26 14 -10 11 -12 -22 -14 -22 -1 -65 1 -96 5 -80 8 -70 28 17 35 50 4 31
6 -70 6 -80 0 -123 -3 -100 -7 39 -6 40 -6 10 -12 -17 -3 -9 -4 20 -3 l50 3
-40 -13 c-22 -7 -67 -11 -100 -9 -41 2 -55 0 -45 -6 9 -6 10 -10 3 -10 -6 0
-15 5 -19 11 -4 7 -25 9 -53 7 -25 -3 -39 -3 -31 -1 9 2 29 15 45 28 30 27 35
27 195 27 63 0 86 2 70 8 -23 7 -23 8 10 10 27 2 30 4 11 7 -19 4 -21 7 -10
14 12 7 11 9 -1 9 -9 0 -20 -4 -26 -10 -5 -5 -15 -6 -24 0 -13 8 -13 10 0 14
32 10 57 11 110 4 30 -4 79 -7 107 -6z m301 6 c-9 -5 -6 -8 9 -8 12 0 23 -5
25 -11 3 -9 37 -10 171 -5 17 0 45 -3 60 -7 16 -4 26 -4 24 0 -3 5 18 9 46 10
29 1 81 5 117 9 52 6 60 9 40 15 -14 5 7 5 45 2 74 -7 87 -8 150 -3 56 3 206
-11 228 -22 13 -6 17 -5 17 7 0 11 7 15 23 13 12 -2 21 -9 20 -16 -2 -6 5 -12
15 -12 14 0 15 -2 2 -10 -8 -5 -23 -7 -32 -4 -10 3 -32 6 -49 6 -20 1 -26 4
-17 9 8 6 0 8 -22 8 -19 0 -29 -3 -21 -6 9 -4 0 -12 -25 -24 -32 -16 -61 -19
-164 -18 -69 1 -137 -3 -151 -9 -20 -8 -43 -7 -87 3 -51 12 -147 11 -161 -1
-2 -2 25 -4 60 -4 48 -1 60 -3 47 -11 -12 -7 -43 -5 -100 4 -46 8 -98 12 -115
10 -21 -3 -33 -1 -33 6 0 17 -92 13 -128 -5 -39 -19 -110 -10 -91 12 14 17 36
18 41 3 2 -7 11 -7 28 0 l25 10 -27 0 c-21 1 -26 5 -22 19 4 10 2 13 -3 7 -4
-5 -20 -11 -35 -13 -22 -2 -28 1 -28 17 0 11 -6 22 -12 25 -7 2 22 4 65 4 44
-1 72 -5 65 -10z m1323 0 c4 -5 24 -12 45 -13 22 -2 44 -4 49 -5 6 -1 25 -2
44 -1 25 1 32 5 27 16 -4 13 8 15 82 15 48 0 112 -3 142 -7 45 -6 51 -8 30
-14 -14 -4 52 -6 145 -4 133 3 153 1 94 -5 -42 -5 -119 -11 -170 -14 -52 -2
-139 -12 -194 -21 -81 -14 -133 -16 -270 -10 -93 4 -186 9 -205 11 -43 6 -68
27 -52 46 13 16 223 22 233 6z m-3986 -8 c-3 -5 1 -10 9 -10 9 0 16 -4 16 -10
0 -5 15 -11 33 -11 l32 -2 -30 -5 -30 -5 25 -7 c18 -6 5 -9 -45 -11 -61 -2
-64 -3 -21 -6 27 -2 55 -10 62 -17 11 -11 1 -15 -58 -20 -46 -5 -74 -4 -81 3
-8 8 -5 11 9 11 41 0 -11 20 -56 21 -25 0 -38 3 -30 7 8 4 16 15 18 24 2 14
-2 15 -33 7 -20 -6 -42 -8 -48 -5 -7 2 -2 5 11 5 13 1 20 5 17 11 -3 6 1 7 9
4 9 -3 16 -1 16 4 0 7 30 13 73 15 39 1 80 4 90 5 10 1 15 -2 12 -8z m816 -1
c11 -5 17 -14 14 -20 -7 -11 60 -11 125 0 27 4 63 2 90 -4 l45 -12 -53 -4
c-29 -2 -57 0 -61 4 -10 10 -121 -5 -164 -22 -16 -6 -25 -15 -22 -21 4 -6 -18
-8 -57 -5 -38 2 -65 -1 -69 -7 -4 -6 -18 -8 -34 -4 -35 9 -22 24 23 28 49 4
50 18 2 18 -25 0 -39 4 -35 10 3 6 15 10 26 10 10 0 18 5 17 12 -5 22 118 36
153 17z m764 1 c3 -6 -4 -14 -17 -19 -21 -9 -20 -10 12 -11 42 0 70 -14 47
-23 -8 -3 -24 -3 -35 0 -11 3 -28 1 -37 -4 -13 -8 -9 -10 17 -11 19 -1 45 -5
59 -11 l24 -9 -27 -7 c-19 -5 -32 -2 -44 9 -10 10 -20 13 -28 8 -17 -13 -65
-7 -87 11 -15 13 -32 16 -81 12 -35 -3 -57 -2 -50 1 10 5 9 9 -4 18 -14 11 -7
12 40 8 44 -4 60 -1 69 11 8 11 32 17 72 20 33 2 61 4 62 5 1 1 5 -3 8 -8z
m3227 -41 c9 -6 6 -9 -9 -9 -13 0 -23 -3 -23 -8 0 -4 51 -6 113 -5 95 1 104 0
57 -7 -80 -13 -500 -21 -500 -9 0 5 8 9 18 10 10 0 12 3 5 6 -28 11 -10 22 40
25 106 7 286 5 299 -3z m-10 -65 c52 -4 84 -10 77 -15 -7 -4 -25 -5 -41 -2
-39 8 -120 -6 -112 -19 4 -5 18 -8 33 -5 15 3 33 1 41 -4 10 -7 -5 -9 -50 -9
-116 2 -150 0 -150 -10 0 -5 8 -7 18 -4 14 5 15 4 2 -5 -9 -6 -81 -11 -175
-12 -88 -1 -277 -4 -420 -6 -142 -2 -256 -1 -252 3 4 4 80 9 170 11 89 2 187
6 217 10 l55 8 -50 6 c-36 4 -18 6 63 7 75 1 111 5 107 12 -4 7 -41 9 -101 6
-57 -3 -94 -1 -94 4 0 13 -12 11 135 19 219 10 433 13 527 5z m-3662 -36 c19
0 169 0 333 2 164 1 300 0 304 -4 7 -7 -259 -11 -612 -9 -455 3 -610 6 -565
12 37 5 404 5 540 -1z m2304 -173 c15 -8 32 -12 37 -9 5 3 9 -2 9 -12 0 -14 7
-16 53 -11 34 4 47 3 36 -3 -9 -5 -40 -10 -68 -11 -28 -1 -56 -8 -62 -16 -9
-9 -8 -13 0 -13 6 0 11 5 11 11 0 6 8 7 23 3 12 -5 42 -7 65 -6 29 2 41 -1 37
-8 -4 -6 22 -11 77 -12 l83 -2 -90 -6 c-125 -9 -91 -12 127 -11 103 1 189 -3
192 -8 3 -4 -32 -9 -77 -10 -45 0 -106 -5 -136 -11 -30 -5 -119 -10 -198 -10
-125 0 -144 2 -139 15 3 9 0 15 -9 15 -8 0 -15 4 -15 8 0 9 -23 11 -215 12
-71 1 -123 4 -115 7 8 3 17 9 20 13 3 4 30 9 60 12 30 3 49 3 42 1 -6 -3 -10
-8 -8 -12 7 -10 66 -1 66 10 0 5 14 9 30 9 17 0 30 -4 30 -9 0 -4 13 -8 29 -7
21 1 27 4 20 13 -7 8 -3 13 13 16 17 3 15 5 -9 6 -20 0 -33 -4 -33 -11 0 -6
-6 -3 -14 7 -7 10 -19 16 -27 13 -8 -3 -23 -2 -34 3 -14 5 -5 8 30 8 38 1 46
4 35 12 -12 8 -10 9 8 4 13 -4 22 -2 22 4 0 16 61 13 94 -4z m-3147 -161 c-7
-7 -1679 -6 -1686 1 -2 3 377 5 844 5 467 0 846 -3 842 -6z m4202 1 c-3 -2
-240 -5 -527 -5 -316 -1 -522 -5 -522 -11 0 -5 12 -9 28 -10 l27 -1 -25 -8
c-17 -5 -19 -8 -7 -9 9 -1 17 -5 17 -10 0 -10 -112 -5 -145 6 -11 4 -31 5 -45
4 -14 -2 -22 0 -18 4 4 4 35 9 69 11 34 1 66 7 72 13 8 8 -135 10 -484 9 -272
-1 -478 -5 -459 -8 32 -5 33 -6 12 -14 -14 -5 -28 -3 -38 5 -9 7 -56 13 -129
14 -101 2 -113 1 -108 -14 4 -15 4 -15 -6 0 -9 14 -31 17 -128 18 -64 1 -119
4 -122 6 -2 3 569 5 1269 5 700 0 1271 -2 1269 -5z m-1878 -200 c1 -5 1 -13 0
-17 0 -5 15 -8 35 -8 21 0 33 4 29 10 -3 6 -1 10 5 10 7 0 9 -7 6 -16 -5 -14
1 -15 39 -12 25 2 46 0 48 -5 1 -4 37 -9 79 -10 41 -1 74 -5 71 -9 -3 -7 85
-13 137 -10 8 0 22 -4 32 -9 10 -6 24 -7 30 -3 23 15 172 11 187 -4 8 -7 23
-11 35 -9 27 6 64 -7 48 -17 -6 -4 -67 -2 -135 4 -68 6 -139 10 -158 10 -19
-1 -47 -1 -64 0 -16 0 -46 1 -65 1 -28 1 -31 3 -15 9 19 8 19 9 -2 9 -12 1
-33 -3 -47 -9 -14 -5 -27 -6 -30 -2 -8 13 -69 8 -73 -5 -3 -9 7 -13 31 -13 26
0 38 -6 46 -21 13 -23 4 -41 -9 -20 -5 7 -13 11 -19 7 -5 -3 -24 1 -41 10 -19
9 -71 17 -133 21 -57 3 -107 9 -113 13 -5 4 -19 10 -30 13 -11 2 0 5 25 6 36
2 41 4 24 11 -30 12 -78 59 -70 68 4 4 20 -9 36 -28 16 -19 32 -32 36 -28 4 4
-4 17 -17 28 -20 16 -22 21 -10 29 19 12 51 10 52 -4z m-322 -198 c71 3 131 2
134 -3 3 -5 -45 -10 -106 -12 -262 -5 -964 -33 -982 -38 -15 -5 -17 -3 -9 5 7
8 142 17 415 28 269 11 405 20 408 27 3 7 6 7 8 -1 3 -9 36 -11 132 -6z m1381
-212 c80 -9 120 -23 113 -41 -3 -8 0 -14 6 -14 6 0 11 7 11 15 0 8 8 15 18 15
14 0 15 -2 2 -10 -16 -11 -9 -13 32 -10 14 1 29 -3 32 -8 4 -6 -6 -8 -24 -6
-18 3 -30 1 -30 -6 0 -7 -55 -10 -177 -8 -133 2 -177 6 -176 15 4 16 -56 27
-118 21 -35 -4 -52 -1 -57 8 -4 8 -30 16 -57 18 -28 3 -52 6 -55 7 -7 5 349
16 390 12 19 -1 60 -5 90 -8z m-930 -15 c3 -3 37 -3 75 2 65 8 100 9 180 5 37
-2 45 -22 10 -23 -15 -1 -31 -7 -38 -14 -10 -10 -5 -11 22 -6 29 5 32 4 21 -9
-15 -18 -130 -21 -146 -5 -7 7 -19 8 -37 1 -18 -7 -28 -7 -33 0 -3 6 3 13 15
16 12 3 21 9 21 14 0 13 -68 11 -72 -2 -2 -7 -12 -7 -28 -1 -14 5 -50 8 -80 6
-39 -3 -49 -2 -35 5 16 8 13 10 -20 10 -23 1 -46 -4 -52 -10 -12 -12 -53 -3
-53 11 0 17 237 17 250 0z m-363 -128 c8 -5 14 -65 18 -187 3 -99 10 -263 16
-365 l11 -185 44 -84 c25 -46 43 -85 42 -86 -2 -1 -28 -17 -59 -34 -58 -33
-79 -38 -79 -21 0 6 -17 28 -37 50 -74 76 -119 134 -96 122 15 -8 24 -9 28 -2
4 6 11 7 17 4 6 -4 6 2 -1 15 -7 11 -16 21 -22 21 -6 0 -8 4 -5 8 3 5 -13 28
-34 52 -22 24 -41 49 -43 54 -3 6 -8 8 -12 3 -5 -4 -3 -13 3 -19 19 -19 14
-32 -18 -47 -24 -10 -34 -10 -45 -1 -10 8 -19 9 -27 3 -7 -6 -87 -11 -178 -12
-91 -2 -176 -4 -189 -5 -14 -1 -45 -26 -77 -61 -41 -44 -57 -56 -66 -47 -15
15 -52 -4 -44 -23 3 -8 1 -17 -5 -20 -5 -4 -7 -11 -4 -16 13 -20 -94 -139
-124 -139 -9 0 -40 16 -69 36 l-52 37 39 72 c39 72 39 74 46 216 4 79 13 162
21 184 10 31 11 82 5 225 -4 102 -5 192 -3 202 4 19 31 28 83 28 28 0 38 -5
42 -20 5 -18 13 -20 84 -19 49 0 71 3 58 8 -11 5 30 8 98 7 64 0 117 2 117 7
0 4 5 7 11 7 5 0 7 -4 4 -10 -3 -5 -1 -10 4 -10 6 0 11 5 11 10 0 7 52 9 155
5 103 -4 155 -2 155 5 0 5 5 10 11 10 5 0 7 -4 4 -10 -3 -5 -1 -10 4 -10 6 0
11 4 11 10 0 5 7 7 15 4 10 -4 15 0 15 15 0 19 6 21 53 21 28 0 57 -4 64 -8z"/>
<path d="M3340 3455 c0 -8 5 -15 10 -15 6 0 10 -9 10 -20 0 -11 -4 -20 -10
-20 -5 0 -10 -10 -10 -23 0 -14 22 -44 60 -82 40 -39 60 -67 58 -79 -5 -31
-23 -29 -68 9 -23 19 -44 35 -46 35 -2 0 -4 -29 -4 -65 l0 -66 113 3 c99 3
112 5 111 21 0 9 -1 85 -2 167 l-2 150 -110 0 c-91 0 -110 -3 -110 -15z"/>
<path d="M3010 976 c0 -21 5 -25 38 -29 l37 -4 -37 -1 c-33 -2 -38 -5 -38 -26
0 -22 5 -25 43 -29 l42 -4 -42 -1 c-39 -2 -43 -5 -43 -27 0 -21 5 -25 28 -25
15 0 33 5 40 12 9 9 15 9 23 1 9 -9 9 -20 -1 -43 -7 -17 -10 -33 -8 -36 6 -5
48 93 48 112 0 8 -8 14 -19 14 -14 0 -17 6 -13 25 2 15 0 25 -7 25 -6 0 -11
14 -11 30 0 28 -2 30 -40 30 -36 0 -40 -3 -40 -24z"/>
<path d="M3323 832 c-41 -3 -43 -5 -43 -34 0 -27 3 -30 23 -24 12 3 77 6 145
6 l122 0 0 30 0 31 -102 -3 c-57 -1 -122 -4 -145 -6z"/>
<path d="M870 1069 c-102 -28 -186 -51 -187 -53 -1 -1 16 -49 38 -106 55 -145
62 -162 100 -267 21 -57 39 -93 48 -93 21 0 91 22 91 29 0 3 -10 22 -22 41
-45 71 -57 107 -44 126 12 15 14 15 34 -7 12 -12 22 -28 22 -35 0 -13 59 -74
73 -74 5 0 21 8 35 19 37 25 150 37 158 16 6 -16 34 -21 34 -7 0 4 -20 62 -43
128 -24 65 -61 167 -82 227 -27 78 -42 107 -54 106 -9 0 -99 -23 -201 -50z"/>
<path d="M5688 993 c19 -7 14 -26 -5 -19 -15 5 -15 4 1 -9 17 -13 18 -15 3
-15 -26 0 -16 -31 32 -100 49 -70 71 -75 83 -17 10 50 -16 110 -52 117 -28 6
-38 29 -18 41 8 6 0 8 -22 8 -19 0 -29 -3 -22 -6z"/>
<path d="M5560 463 c-13 -38 -22 -90 -22 -117 1 -80 -59 -159 -213 -281 -33
-26 -64 -52 -70 -56 -5 -5 39 -9 102 -9 l111 0 11 33 c20 60 117 166 176 193
64 30 135 39 190 26 24 -6 31 -10 18 -11 -13 -1 -23 -7 -23 -15 0 -8 -6 -14
-12 -13 -32 1 -46 -4 -51 -17 -8 -20 14 -86 28 -86 12 0 45 -31 45 -42 0 -5
-24 -4 -40 2 -3 1 -8 2 -12 1 -3 0 -9 13 -13 29 -4 17 -11 30 -16 30 -5 0 -6
-12 -3 -26 5 -18 3 -25 -4 -20 -6 4 -9 -4 -7 -21 1 -15 1 -33 -2 -40 -7 -18
-23 -16 -23 3 0 8 -4 13 -10 9 -5 -3 -7 -12 -3 -21 4 -11 19 -14 59 -12 52 3
53 3 39 25 -23 35 -18 36 14 4 25 -26 37 -30 73 -28 24 1 46 7 50 12 5 6 8 5
8 -2 0 -7 7 -13 15 -13 14 0 13 4 -1 32 l-17 33 21 -19 c23 -20 21 -22 37 29
8 27 33 4 40 -36 l7 -39 49 0 c27 0 49 2 49 6 0 3 -11 21 -25 41 -25 38 -25
53 3 54 12 0 11 3 -5 9 -16 7 -21 14 -16 26 4 12 3 15 -5 10 -7 -4 -42 7 -79
24 -37 18 -75 34 -85 35 -18 4 -67 53 -68 67 0 5 -10 19 -22 33 -12 14 -40 52
-63 84 -22 32 -56 77 -76 99 -33 39 -40 42 -87 42 l-50 0 -22 -67z"/>
<path d="M3623 158 c-17 -22 -23 -48 -11 -45 16 3 23 -32 9 -46 -7 -7 -14 -7
-24 1 -8 7 -17 9 -21 5 -4 -4 -4 0 0 10 9 23 -12 22 -29 -3 -8 -11 -16 -17
-19 -14 -4 3 -9 -4 -13 -15 -3 -12 -13 -28 -21 -36 -14 -13 -2 -15 111 -15
123 0 126 0 136 24 9 19 8 29 -4 47 -16 22 -16 21 -10 -17 l6 -39 -26 25 c-26
24 -37 47 -17 35 12 -7 13 5 2 23 -6 9 -12 6 -20 -12 -8 -18 -8 -26 0 -28 8
-3 8 -9 0 -24 -8 -14 -12 -15 -12 -4 -1 10 -4 8 -9 -5 -6 -14 -9 -1 -9 39 -1
35 -6 62 -13 67 -10 6 -10 11 0 23 8 9 11 16 8 16 -2 0 -9 -6 -14 -12z"/>
</g>
</svg>
